<svg xmlns="http://www.w3.org/2000/svg" viewBox="0 0 512 512">
  <defs>
    <linearGradient id="bg" x1="0%" y1="0%" x2="100%" y2="100%">
      <stop offset="0%" style="stop-color:#2E7DFF"/>
      <stop offset="100%" style="stop-color:#1a5fd4"/>
    </linearGradient>
  </defs>
  <!-- Background -->
  <rect width="512" height="512" rx="108" fill="url(#bg)"/>
  <!-- Heart shape -->
  <path d="M256 370 C246 362 100 268 100 178 C100 138 132 108 172 108 C200 108 224 123 256 155 C288 123 312 108 340 108 C380 108 412 138 412 178 C412 268 266 362 256 370 Z" fill="white"/>
  <!-- ECG line over heart -->
  <polyline
    points="100,200 152,200 174,160 196,248 218,178 240,200 272,200 294,170 316,234 338,200 412,200"
    fill="none" stroke="#2E7DFF" stroke-width="14" stroke-linecap="round" stroke-linejoin="round"/>
</svg>
